<?xml version="1.0" encoding="UTF-8"?>
<svg xmlns="http://www.w3.org/2000/svg" xmlns:xlink="http://www.w3.org/1999/xlink" width="255pt" height="231.59pt" viewBox="0 0 255 231.59" version="1.1">
<defs>
<clipPath id="clip1">
  <path d="M 68 205 L 86 205 L 86 231.589844 L 68 231.589844 Z M 68 205 "/>
</clipPath>
</defs>
<g id="surface1">
<path style=" stroke:none;fill-rule:evenodd;fill:rgb(94.099426%,34.098816%,13.699341%);fill-opacity:1;" d="M 239.847656 217.179688 L 242.90625 216.699219 C 243.078125 217.925781 243.554688 218.863281 244.339844 219.519531 C 245.121094 220.171875 246.21875 220.496094 247.628906 220.496094 C 249.050781 220.496094 250.105469 220.210938 250.789063 219.628906 C 251.480469 219.050781 251.820313 218.371094 251.820313 217.59375 C 251.820313 216.894531 251.515625 216.347656 250.910156 215.945313 C 250.484375 215.671875 249.4375 215.320313 247.75 214.894531 C 245.480469 214.324219 243.910156 213.828125 243.035156 213.410156 C 242.15625 212.992188 241.492188 212.414063 241.042969 211.675781 C 240.589844 210.9375 240.363281 210.121094 240.363281 209.226563 C 240.363281 208.414063 240.546875 207.660156 240.921875 206.96875 C 241.292969 206.273438 241.800781 205.699219 242.445313 205.242188 C 242.921875 204.886719 243.578125 204.585938 244.410156 204.339844 C 245.238281 204.09375 246.132813 203.96875 247.082031 203.96875 C 248.511719 203.96875 249.769531 204.175781 250.851563 204.585938 C 251.933594 205 252.734375 205.558594 253.246094 206.261719 C 253.765625 206.96875 254.121094 207.910156 254.3125 209.089844 L 251.289063 209.503906 C 251.152344 208.5625 250.753906 207.828125 250.097656 207.304688 C 249.4375 206.777344 248.507813 206.511719 247.304688 206.511719 C 245.882813 206.511719 244.867188 206.746094 244.261719 207.214844 C 243.65625 207.683594 243.351563 208.234375 243.351563 208.863281 C 243.351563 209.265625 243.476563 209.628906 243.730469 209.949219 C 243.980469 210.28125 244.378906 210.554688 244.914063 210.773438 C 245.222656 210.886719 246.136719 211.148438 247.648438 211.5625 C 249.835938 212.148438 251.363281 212.625 252.226563 212.996094 C 253.09375 213.371094 253.769531 213.910156 254.261719 214.621094 C 254.753906 215.332031 255 216.214844 255 217.265625 C 255 218.296875 254.699219 219.269531 254.101563 220.179688 C 253.496094 221.089844 252.628906 221.792969 251.496094 222.292969 C 250.363281 222.792969 249.082031 223.042969 247.648438 223.042969 C 245.277344 223.042969 243.472656 222.546875 242.226563 221.5625 C 240.984375 220.578125 240.191406 219.117188 239.847656 217.179688 Z M 235.398438 215.945313 L 238.4375 216.339844 C 238.105469 218.4375 237.253906 220.074219 235.882813 221.261719 C 234.515625 222.449219 232.835938 223.042969 230.839844 223.042969 C 228.347656 223.042969 226.339844 222.222656 224.820313 220.589844 C 223.304688 218.960938 222.542969 216.621094 222.542969 213.574219 C 222.542969 211.605469 222.871094 209.878906 223.523438 208.402344 C 224.175781 206.925781 225.167969 205.816406 226.503906 205.078125 C 227.835938 204.339844 229.289063 203.96875 230.859375 203.96875 C 232.839844 203.96875 234.464844 204.472656 235.722656 205.472656 C 236.984375 206.476563 237.789063 207.898438 238.144531 209.742188 L 235.140625 210.207031 C 234.851563 208.980469 234.34375 208.058594 233.617188 207.441406 C 232.890625 206.820313 232.011719 206.511719 230.980469 206.511719 C 229.425781 206.511719 228.15625 207.070313 227.183594 208.1875 C 226.207031 209.304688 225.722656 211.070313 225.722656 213.488281 C 225.722656 215.9375 226.191406 217.71875 227.132813 218.828125 C 228.074219 219.941406 229.296875 220.496094 230.808594 220.496094 C 232.023438 220.496094 233.039063 220.125 233.847656 219.378906 C 234.664063 218.636719 235.175781 217.488281 235.398438 215.945313 Z M 215.691406 222.628906 L 215.691406 204.382813 L 218.78125 204.382813 L 218.78125 222.628906 Z M 215.691406 200.996094 L 215.691406 197.441406 L 218.78125 197.441406 L 218.78125 200.996094 Z M 212.648438 219.859375 L 213.097656 222.59375 C 212.222656 222.777344 211.445313 222.867188 210.761719 222.867188 C 209.636719 222.867188 208.769531 222.691406 208.144531 222.335938 C 207.527344 221.980469 207.09375 221.515625 206.839844 220.933594 C 206.589844 220.355469 206.460938 219.140625 206.460938 217.285156 L 206.460938 206.789063 L 204.195313 206.789063 L 204.195313 204.382813 L 206.460938 204.382813 L 206.460938 199.863281 L 209.539063 198.007813 L 209.539063 204.382813 L 212.648438 204.382813 L 212.648438 206.789063 L 209.539063 206.789063 L 209.539063 217.457031 C 209.539063 218.339844 209.59375 218.90625 209.703125 219.15625 C 209.808594 219.410156 209.988281 219.609375 210.234375 219.757813 C 210.480469 219.90625 210.832031 219.980469 211.292969 219.980469 C 211.636719 219.980469 212.089844 219.941406 212.648438 219.859375 Z M 188.164063 229.65625 L 187.820313 226.75 C 188.496094 226.933594 189.089844 227.023438 189.59375 227.023438 C 190.28125 227.023438 190.828125 226.910156 191.242188 226.683594 C 191.65625 226.453125 191.992188 226.132813 192.253906 225.71875 C 192.449219 225.410156 192.761719 224.644531 193.199219 223.417969 C 193.257813 223.246094 193.351563 222.992188 193.472656 222.660156 L 186.550781 204.382813 L 189.882813 204.382813 L 193.683594 214.949219 C 194.171875 216.289063 194.613281 217.695313 195.003906 219.175781 C 195.359375 217.753906 195.78125 216.367188 196.277344 215.015625 L 200.175781 204.382813 L 203.269531 204.382813 L 196.328125 222.9375 C 195.582031 224.941406 195.003906 226.320313 194.59375 227.078125 C 194.039063 228.097656 193.410156 228.84375 192.703125 229.320313 C 191.992188 229.796875 191.144531 230.03125 190.160156 230.03125 C 189.5625 230.03125 188.898438 229.90625 188.164063 229.65625 Z M 180.421875 222.628906 L 180.421875 197.441406 L 183.511719 197.441406 L 183.511719 222.628906 Z M 172.566406 213.472656 C 171.441406 213.929688 169.757813 214.320313 167.515625 214.640625 C 166.242188 214.820313 165.34375 215.027344 164.816406 215.257813 C 164.292969 215.488281 163.882813 215.820313 163.597656 216.261719 C 163.3125 216.703125 163.167969 217.191406 163.167969 217.730469 C 163.167969 218.554688 163.480469 219.242188 164.101563 219.792969 C 164.726563 220.34375 165.644531 220.617188 166.84375 220.617188 C 168.035156 220.617188 169.09375 220.355469 170.023438 219.835938 C 170.953125 219.316406 171.632813 218.601563 172.066406 217.695313 C 172.398438 216.996094 172.566406 215.96875 172.566406 214.605469 Z M 172.824219 220.375 C 171.679688 221.351563 170.574219 222.035156 169.515625 222.4375 C 168.457031 222.839844 167.320313 223.042969 166.105469 223.042969 C 164.101563 223.042969 162.5625 222.550781 161.484375 221.570313 C 160.40625 220.589844 159.871094 219.339844 159.871094 217.816406 C 159.871094 216.921875 160.070313 216.109375 160.480469 215.367188 C 160.886719 214.628906 161.417969 214.035156 162.074219 213.589844 C 162.734375 213.144531 163.476563 212.808594 164.304688 212.578125 C 164.910156 212.417969 165.824219 212.261719 167.054688 212.113281 C 169.546875 211.816406 171.386719 211.460938 172.566406 211.046875 C 172.578125 210.621094 172.582031 210.355469 172.582031 210.238281 C 172.582031 208.980469 172.292969 208.09375 171.703125 207.578125 C 170.917969 206.878906 169.742188 206.527344 168.183594 206.527344 C 166.726563 206.527344 165.65625 206.785156 164.964844 207.292969 C 164.269531 207.804688 163.757813 208.703125 163.425781 210 L 160.398438 209.585938 C 160.679688 208.292969 161.128906 207.25 161.757813 206.453125 C 162.386719 205.65625 163.300781 205.042969 164.492188 204.613281 C 165.683594 204.183594 167.058594 203.96875 168.632813 203.96875 C 170.1875 203.96875 171.453125 204.152344 172.425781 204.519531 C 173.398438 204.886719 174.117188 205.347656 174.578125 205.902344 C 175.03125 206.457031 175.355469 207.15625 175.539063 208.007813 C 175.640625 208.53125 175.695313 209.484375 175.695313 210.859375 L 175.695313 214.984375 C 175.695313 217.855469 175.757813 219.675781 175.890625 220.4375 C 176.023438 221.199219 176.285156 221.929688 176.671875 222.628906 L 173.441406 222.628906 C 173.121094 221.988281 172.914063 221.234375 172.824219 220.375 Z M 141.347656 222.628906 L 141.347656 204.382813 L 144.132813 204.382813 L 144.132813 206.976563 C 145.472656 204.972656 147.40625 203.96875 149.941406 203.96875 C 151.039063 203.96875 152.046875 204.167969 152.972656 204.5625 C 153.894531 204.957031 154.585938 205.476563 155.039063 206.117188 C 155.5 206.757813 155.820313 207.519531 156.007813 208.402344 C 156.117188 208.976563 156.175781 209.976563 156.175781 211.410156 L 156.175781 222.628906 L 153.082031 222.628906 L 153.082031 211.527344 C 153.082031 210.269531 152.964844 209.324219 152.722656 208.703125 C 152.480469 208.078125 152.054688 207.582031 151.441406 207.207031 C 150.828125 206.835938 150.109375 206.648438 149.289063 206.648438 C 147.972656 206.648438 146.832031 207.066406 145.875 207.902344 C 144.921875 208.738281 144.441406 210.324219 144.441406 212.660156 L 144.441406 222.628906 Z M 122.777344 212.285156 L 131.316406 212.285156 L 128.683594 205.308594 C 127.886719 203.191406 127.289063 201.449219 126.902344 200.085938 C 126.582031 201.699219 126.125 203.304688 125.542969 204.898438 Z M 115.507813 222.628906 L 125.183594 197.441406 L 128.773438 197.441406 L 139.078125 222.628906 L 135.285156 222.628906 L 132.34375 215 L 121.8125 215 L 119.046875 222.628906 L 115.507813 222.628906 "/>
<path style=" stroke:none;fill-rule:nonzero;fill:rgb(94.099426%,34.098816%,13.699341%);fill-opacity:1;" d="M 27.121094 208.195313 L 14.25 208.195313 L 14.25 212.011719 L 23.378906 212.011719 C 22.925781 217.367188 18.472656 219.652344 14.265625 219.652344 C 8.882813 219.652344 4.1875 215.417969 4.1875 209.484375 C 4.1875 203.703125 8.664063 199.25 14.277344 199.25 C 18.605469 199.25 21.160156 202.011719 21.160156 202.011719 L 23.832031 199.242188 C 23.832031 199.242188 20.402344 195.421875 14.140625 195.421875 C 6.167969 195.421875 0 202.148438 0 209.417969 C 0 216.539063 5.800781 223.480469 14.34375 223.480469 C 21.855469 223.480469 27.355469 218.335938 27.355469 210.726563 C 27.355469 209.121094 27.121094 208.191406 27.121094 208.191406 L 27.121094 208.195313 "/>
<path style=" stroke:none;fill-rule:nonzero;fill:rgb(94.099426%,34.098816%,13.699341%);fill-opacity:1;" d="M 37.71875 208.96875 C 40.316406 208.96875 42.777344 211.070313 42.777344 214.453125 C 42.777344 217.765625 40.328125 219.925781 37.707031 219.925781 C 34.828125 219.925781 32.558594 217.621094 32.558594 214.425781 C 32.558594 211.304688 34.800781 208.96875 37.71875 208.96875 Z M 37.664063 205.425781 C 32.382813 205.425781 28.597656 209.558594 28.597656 214.371094 C 28.597656 219.261719 32.269531 223.464844 37.726563 223.464844 C 42.667969 223.464844 46.714844 219.691406 46.714844 214.476563 C 46.714844 208.503906 42.007813 205.425781 37.664063 205.425781 "/>
<path style=" stroke:none;fill-rule:nonzero;fill:rgb(94.099426%,34.098816%,13.699341%);fill-opacity:1;" d="M 57.4375 208.96875 C 60.035156 208.96875 62.496094 211.070313 62.496094 214.453125 C 62.496094 217.765625 60.046875 219.925781 57.425781 219.925781 C 54.546875 219.925781 52.277344 217.621094 52.277344 214.425781 C 52.277344 211.304688 54.519531 208.96875 57.4375 208.96875 Z M 57.386719 205.425781 C 52.101563 205.425781 48.320313 209.558594 48.320313 214.371094 C 48.320313 219.261719 51.988281 223.464844 57.449219 223.464844 C 62.386719 223.464844 66.4375 219.691406 66.4375 214.476563 C 66.4375 208.503906 61.726563 205.425781 57.386719 205.425781 "/>
<g clip-path="url(#clip1)" clip-rule="nonzero">
<path style=" stroke:none;fill-rule:nonzero;fill:rgb(94.099426%,34.098816%,13.699341%);fill-opacity:1;" d="M 77.078125 208.972656 C 79.457031 208.972656 81.894531 211.003906 81.894531 214.46875 C 81.894531 217.992188 79.460938 219.933594 77.027344 219.933594 C 74.441406 219.933594 72.035156 217.835938 72.035156 214.5 C 72.035156 211.039063 74.535156 208.972656 77.078125 208.972656 Z M 76.726563 205.4375 C 71.878906 205.4375 68.070313 209.683594 68.070313 214.449219 C 68.070313 219.878906 72.488281 223.476563 76.644531 223.476563 C 79.214844 223.476563 80.582031 222.457031 81.589844 221.285156 L 81.589844 223.066406 C 81.589844 226.175781 79.703125 228.039063 76.847656 228.039063 C 74.09375 228.039063 72.710938 225.992188 72.230469 224.828125 L 68.765625 226.277344 C 69.996094 228.878906 72.472656 231.589844 76.878906 231.589844 C 81.699219 231.589844 85.371094 228.554688 85.371094 222.1875 L 85.371094 205.980469 L 81.589844 205.980469 L 81.589844 207.507813 C 80.425781 206.253906 78.839844 205.4375 76.726563 205.4375 "/>
</g>
<path style=" stroke:none;fill-rule:nonzero;fill:rgb(94.099426%,34.098816%,13.699341%);fill-opacity:1;" d="M 102.34375 208.882813 C 103.992188 208.882813 105.175781 209.761719 105.679688 210.8125 L 97.605469 214.1875 C 97.257813 211.574219 99.730469 208.882813 102.34375 208.882813 Z M 102.1875 205.414063 C 97.613281 205.414063 93.773438 209.054688 93.773438 214.421875 C 93.773438 220.105469 98.050781 223.472656 102.625 223.472656 C 106.441406 223.472656 108.78125 221.386719 110.179688 219.515625 L 107.0625 217.441406 C 106.253906 218.695313 104.902344 219.921875 102.644531 219.921875 C 100.109375 219.921875 98.941406 218.535156 98.21875 217.1875 L 110.3125 212.171875 L 109.6875 210.699219 C 108.519531 207.820313 105.792969 205.417969 102.1875 205.417969 L 102.1875 205.414063 "/>
<path style=" stroke:none;fill-rule:nonzero;fill:rgb(94.099426%,34.098816%,13.699341%);fill-opacity:1;" d="M 88.007813 222.9375 L 91.980469 222.9375 L 91.980469 196.351563 L 88.007813 196.351563 L 88.007813 222.9375 "/>
<path style=" stroke:none;fill-rule:nonzero;fill:rgb(96.499634%,59.599304%,12.199402%);fill-opacity:1;" d="M 210.789063 154.90625 C 210.789063 163.15625 204.039063 169.90625 195.789063 169.90625 L 55.878906 169.90625 C 47.628906 169.90625 40.878906 163.15625 40.878906 154.90625 L 40.878906 14.996094 C 40.878906 6.746094 47.628906 -0.00390625 55.878906 -0.00390625 L 195.789063 -0.00390625 C 204.039063 -0.00390625 210.789063 6.746094 210.789063 14.996094 L 210.789063 154.90625 "/>
<path style=" stroke:none;fill-rule:nonzero;fill:rgb(94.099426%,34.098816%,13.699341%);fill-opacity:1;" d="M 40.878906 114.3125 L 40.878906 154.90625 C 40.878906 163.15625 47.628906 169.90625 55.878906 169.90625 L 195.789063 169.90625 C 204.039063 169.90625 210.789063 163.15625 210.789063 154.90625 L 211.429688 29.3125 L 107.585938 110.640625 L 84.785156 87.839844 C 84.785156 87.839844 53.261719 102.832031 40.878906 114.3125 "/>
<path style=" stroke:none;fill-rule:nonzero;fill:rgb(100%,100%,100%);fill-opacity:1;" d="M 211.429688 6.796875 L 126.5625 91.625 L 88.394531 53.449219 L 36.148438 105.699219 L 35.640625 144.203125 L 107.417969 72.472656 C 107.417969 95.136719 107.585938 110.640625 107.585938 110.640625 L 126.585938 129.640625 L 211.429688 44.796875 L 211.429688 6.796875 "/>
</g>
</svg>
